<svg width="20" height="20" viewBox="0 0 20 20" fill="none" xmlns="http://www.w3.org/2000/svg">
<g clip-path="url(#clip0_1_12458)">
<path d="M14.1993 12.2847C14.0202 12.1243 13.745 12.1399 13.5854 12.3186C12.6784 13.3321 11.3706 13.913 9.99627 13.913C8.62235 13.913 7.31409 13.3321 6.40714 12.3186C6.2467 12.1399 5.97235 12.1243 5.79322 12.2847C5.61409 12.4447 5.59931 12.7195 5.75931 12.8986C6.83105 14.096 8.3754 14.7826 9.99627 14.7826C11.6176 14.7826 13.1619 14.0956 14.2332 12.8986C14.3932 12.7195 14.378 12.4447 14.1993 12.2847Z" fill="black" fill-opacity="0.5"/>
<path d="M10 0C4.48609 0 0 4.48609 0 10C0 15.5139 4.48609 20 10 20C15.5139 20 20 15.5139 20 10C20 4.48609 15.5139 0 10 0ZM10 19.1304C4.96522 19.1304 0.869565 15.0348 0.869565 10C0.869565 4.96522 4.96522 0.869565 10 0.869565C15.0348 0.869565 19.1304 4.96522 19.1304 10C19.1304 15.0348 15.0348 19.1304 10 19.1304Z" fill="black" fill-opacity="0.5"/>
<path d="M13.4786 6.95703C12.2799 6.95703 11.3047 7.93225 11.3047 9.13094C11.3047 9.37094 11.4995 9.56573 11.7395 9.56573C11.9795 9.56573 12.1743 9.37094 12.1743 9.13094C12.1743 8.41181 12.7595 7.8266 13.4786 7.8266C14.1977 7.8266 14.7829 8.41181 14.7829 9.13094C14.7829 9.37094 14.9777 9.56573 15.2177 9.56573C15.4577 9.56573 15.6525 9.37094 15.6525 9.13094C15.6525 7.93225 14.6773 6.95703 13.4786 6.95703Z" fill="black" fill-opacity="0.5"/>
<path d="M7.82201 9.13094C7.82201 9.37094 8.01679 9.56573 8.25679 9.56573C8.49679 9.56573 8.69158 9.37094 8.69158 9.13094C8.69158 7.93225 7.71636 6.95703 6.51766 6.95703C5.31897 6.95703 4.34375 7.93225 4.34375 9.13094C4.34375 9.37094 4.53853 9.56573 4.77853 9.56573C5.01853 9.56573 5.21332 9.37094 5.21332 9.13094C5.21332 8.41181 5.79853 7.8266 6.51766 7.8266C7.23679 7.8266 7.82201 8.41181 7.82201 9.13094Z" fill="black" fill-opacity="0.5"/>
</g>
<defs>
<clipPath id="clip0_1_12458">
<rect width="20" height="20" fill="white"/>
</clipPath>
</defs>
</svg>
