<svg width="17" height="17" viewBox="0 0 17 17" fill="none" xmlns="http://www.w3.org/2000/svg">
<g clip-path="url(#clip0_456_6540)">
<path d="M16.2639 11.5573C16.6123 11.1129 16.7793 10.6366 16.758 10.146C16.7367 9.6056 16.4949 9.18256 16.2959 8.92305C16.5269 8.34714 16.6158 7.44061 15.8444 6.73672C15.2791 6.22125 14.3193 5.99017 12.9897 6.05416C12.0547 6.09682 11.2726 6.27102 11.2406 6.27813H11.2371C11.0593 6.31012 10.8709 6.34923 10.679 6.39189C10.6647 6.16437 10.7038 5.59912 11.1233 4.32643C11.621 2.812 11.5926 1.65307 11.0309 0.878085C10.4408 0.06399 9.4987 0 9.22141 0C8.95479 0 8.70949 0.110205 8.5353 0.31284C8.14069 0.771435 8.1869 1.61752 8.23668 2.00857C7.76742 3.26704 6.45207 6.35278 5.33935 7.20954C5.31802 7.22376 5.30025 7.24153 5.28247 7.25931C4.95541 7.60414 4.735 7.97742 4.58569 8.30448C4.37595 8.19072 4.13776 8.12673 3.8818 8.12673H1.71325C0.895605 8.12673 0.234375 8.79151 0.234375 9.60561V15.3825C0.234375 16.2001 0.89916 16.8614 1.71325 16.8614H3.8818C4.1982 16.8614 4.49326 16.7618 4.735 16.5912L5.57043 16.6907C5.69841 16.7085 7.97361 16.9964 10.3092 16.9502C10.7323 16.9822 11.1304 17 11.5002 17C12.1365 17 12.6911 16.9502 13.1532 16.8507C14.2411 16.6196 14.9841 16.1575 15.3609 15.4785C15.6488 14.9594 15.6488 14.444 15.6026 14.1169C16.3101 13.477 16.4345 12.7696 16.4096 12.2719C16.3954 11.9839 16.3314 11.7386 16.2639 11.5573ZM1.71325 15.9015C1.4253 15.9015 1.19422 15.6669 1.19422 15.3825V9.60205C1.19422 9.31409 1.42885 9.08302 1.71325 9.08302H3.8818C4.16976 9.08302 4.40083 9.31765 4.40083 9.60205V15.3789C4.40083 15.6669 4.1662 15.898 3.8818 15.898H1.71325V15.9015ZM15.3538 11.1414C15.2045 11.2978 15.176 11.536 15.2898 11.7208C15.2898 11.7244 15.4355 11.9732 15.4533 12.3145C15.4782 12.7802 15.2542 13.1926 14.785 13.5445C14.6179 13.6725 14.5504 13.8929 14.6215 14.092C14.6215 14.0956 14.7743 14.5648 14.5255 15.0092C14.2873 15.4358 13.7576 15.7415 12.9542 15.9122C12.3107 16.0508 11.4362 16.0757 10.3626 15.9904C10.3483 15.9904 10.3306 15.9904 10.3128 15.9904C8.02693 16.0401 5.71618 15.7415 5.6913 15.738H5.68774L5.32869 15.6953C5.35002 15.5958 5.36068 15.4891 5.36068 15.3825V9.60205C5.36068 9.44918 5.3358 9.29988 5.29314 9.16123C5.35713 8.92305 5.53488 8.39335 5.95437 7.94187C7.55056 6.67629 9.1112 2.40673 9.17875 2.22187C9.20719 2.14722 9.2143 2.06545 9.20008 1.98369C9.13964 1.58553 9.16097 1.09849 9.24629 0.952739C9.43471 0.956294 9.94308 1.00962 10.2488 1.43266C10.6114 1.93392 10.5972 2.82978 10.2061 4.01715C9.6089 5.82664 9.55913 6.77938 10.0319 7.19887C10.2666 7.40862 10.5794 7.41928 10.8069 7.33752C11.0238 7.28775 11.23 7.24509 11.4255 7.21309C11.4397 7.20954 11.4575 7.20598 11.4717 7.20243C12.5631 6.96424 14.5184 6.81849 15.1974 7.43706C15.7733 7.9632 15.3644 8.65998 15.3182 8.73463C15.1867 8.93371 15.2258 9.19322 15.4036 9.3532C15.4071 9.35676 15.7804 9.7087 15.7982 10.1815C15.8124 10.4979 15.6631 10.8214 15.3538 11.1414Z" fill="black" fill-opacity="0.7"/>
</g>
<defs>
<clipPath id="clip0_456_6540">
<rect width="17" height="17" fill="white"/>
</clipPath>
</defs>
</svg>
