<svg width="18" height="18" viewBox="0 0 18 18" fill="none" xmlns="http://www.w3.org/2000/svg">
<path d="M15.7789 0H2.22266C1.93142 0 1.69531 0.236109 1.69531 0.527344V17.4727C1.69531 17.6859 1.82381 17.8782 2.02086 17.9599C2.21791 18.0414 2.44474 17.9963 2.59556 17.8455L9.00078 11.4403L15.406 17.8455C15.5568 17.9963 15.7836 18.0414 15.9807 17.9599C16.1777 17.8782 16.3062 17.6859 16.3062 17.4727V0.527344C16.3062 0.236109 16.0701 0 15.7789 0ZM15.2515 16.1995L9.37368 10.3217C9.2707 10.2187 9.13574 10.1672 9.00081 10.1672C8.86588 10.1672 8.73088 10.2187 8.62794 10.3217L2.75 16.1995V1.05469H15.2515V16.1995Z" fill="black"/>
</svg>
