<svg width="14" height="14" viewBox="0 0 14 14" fill="none" xmlns="http://www.w3.org/2000/svg">
<path d="M11.9 0H2.1C0.91 0 0 0.91 0 2.1V9.1C0 10.22 0.91 11.2 2.1 11.2V14L6.72 11.2H11.9C13.09 11.2 14 10.29 14 9.1V2.1C14 0.91 13.09 0 11.9 0ZM12.6 9.1C12.6 9.52 12.32 9.8 11.9 9.8H6.3L3.5 11.55V9.8H2.1C1.68 9.8 1.4 9.52 1.4 9.1V2.1C1.4 1.68 1.68 1.4 2.1 1.4H11.9C12.32 1.4 12.6 1.68 12.6 2.1V9.1Z" fill="black"/>
<path d="M3.5 4.8999H4.9V6.2999H3.5V4.8999Z" fill="black"/>
<path d="M6.30078 4.8999H7.70078V6.2999H6.30078V4.8999Z" fill="black"/>
<path d="M9.10156 4.8999H10.5016V6.2999H9.10156V4.8999Z" fill="black"/>
</svg>
