<svg width="14" height="18" viewBox="0 0 14 18" fill="none" xmlns="http://www.w3.org/2000/svg">
<path d="M6.44412 2.49054V2.61125V10.8396C6.44412 11.157 6.70134 11.4146 7.01912 11.4146C7.3369 11.4146 7.59412 11.157 7.59412 10.8396V2.61125V2.49054L7.67947 2.5759L9.40573 4.30215C9.51803 4.41445 9.66513 4.47042 9.81245 4.47042C9.95978 4.47042 10.1069 4.41445 10.2192 4.30215L10.2192 4.30212C10.4438 4.0779 10.4438 3.71335 10.2192 3.48914L10.2192 3.4891L7.42629 0.695805L6.44412 2.49054ZM6.44412 2.49054L6.35876 2.5759M6.44412 2.49054L6.35876 2.5759M6.35876 2.5759L4.63251 4.30215C4.40787 4.52679 4.04411 4.52679 3.81947 4.30215L3.81944 4.30212C3.59484 4.0779 3.59484 3.71335 3.81944 3.48914L3.81947 3.48911M6.35876 2.5759L3.81947 3.48911M3.81947 3.48911L6.61281 0.695775C6.83742 0.471162 7.20118 0.471108 7.42626 0.695773L3.81947 3.48911ZM9.98995 5.64917H11.6958C12.7023 5.64917 13.5208 6.4676 13.5212 7.47417C13.5212 7.47417 13.5212 7.47418 13.5212 7.47419V15.6475C13.5212 16.6536 12.7023 17.4725 11.6962 17.4725H2.30078C1.29465 17.4725 0.475781 16.6536 0.475781 15.6475V7.47417C0.475781 6.46803 1.29465 5.64917 2.30078 5.64917H4.00703C4.32484 5.64917 4.58203 5.90636 4.58203 6.22417C4.58203 6.54197 4.32484 6.79917 4.00703 6.79917H2.30078C1.92858 6.79917 1.62578 7.10197 1.62578 7.47417V15.6475C1.62578 16.0197 1.92858 16.3225 2.30078 16.3225H11.6962C12.0684 16.3225 12.3712 16.0197 12.3712 15.6475V7.47417C12.3712 7.10197 12.0684 6.79917 11.6962 6.79917H9.98995C9.67255 6.79917 9.41495 6.54195 9.41495 6.22417C9.41495 5.90639 9.67255 5.64917 9.98995 5.64917Z" fill="black" stroke="white" stroke-width="0.1"/>
</svg>
