<svg width="22" height="22" viewBox="0 0 22 22" fill="none" xmlns="http://www.w3.org/2000/svg">
<path d="M11.0226 4.29695C9.36354 4.28518 8.00482 5.62361 7.99227 7.28217C7.97977 8.94064 9.31894 10.3 10.9775 10.3125C10.9852 10.3125 10.9928 10.3126 11.0005 10.3126C12.6485 10.3126 13.9954 8.97815 14.0078 7.32729C14.0203 5.6689 12.6812 4.30946 11.0226 4.29695ZM11.0004 9.45326C10.995 9.45326 10.9894 9.45321 10.9839 9.45317C9.79924 9.44423 8.84267 8.47322 8.85161 7.28861C8.8605 6.10933 9.82249 5.1562 10.9997 5.1562C11.0051 5.1562 11.0107 5.15624 11.0162 5.15629C12.2009 5.16522 13.1574 6.13623 13.1485 7.32084C13.1396 8.50012 12.1776 9.45326 11.0004 9.45326Z" fill="white"/>
<path d="M17.1 2.2002L17.1 1.6002L15.9 1.6002L15.9 2.2002L17.1 2.2002ZM16.0757 19.1245C16.3101 19.3588 16.69 19.3588 16.9243 19.1245L20.7426 15.3061C20.977 15.0718 20.977 14.6919 20.7426 14.4576C20.5083 14.2232 20.1284 14.2232 19.8941 14.4576L16.5 17.8517L13.1059 14.4576C12.8716 14.2232 12.4917 14.2232 12.2574 14.4576C12.023 14.6919 12.023 15.0718 12.2574 15.3061L16.0757 19.1245ZM15.9 2.2002L15.9 18.7002L17.1 18.7002L17.1 2.2002L15.9 2.2002Z" fill="black"/>
<path d="M8.29922 18.7002L8.29922 19.3002L7.09922 19.3002L7.09922 18.7002L8.29922 18.7002ZM7.27496 1.77593C7.50927 1.54162 7.88917 1.54162 8.12348 1.77593L11.9419 5.59431C12.1762 5.82862 12.1762 6.20852 11.9419 6.44284C11.7075 6.67715 11.3276 6.67715 11.0933 6.44284L7.69922 3.04872L4.30511 6.44284C4.07079 6.67715 3.69089 6.67715 3.45658 6.44284C3.22226 6.20852 3.22226 5.82862 3.45658 5.59431L7.27496 1.77593ZM7.09922 18.7002L7.09922 2.2002L8.29922 2.2002L8.29922 18.7002L7.09922 18.7002Z" fill="black"/>
</svg>
