<svg width="17" height="16" viewBox="0 0 17 16" fill="none" xmlns="http://www.w3.org/2000/svg">
<g clip-path="url(#clip0_1_5357)">
<path d="M12.1936 15.9612C9.40222 15.9612 6.42134 14.9355 4.09066 12.6048C1.76387 10.278 0.734375 7.29913 0.734375 4.50193C0.734375 2.03668 2.72887 0.0380859 5.19822 0.0380859C5.38898 0.0380859 5.5605 0.154212 5.63134 0.331326L7.63003 5.32803C7.72573 5.56725 7.60938 5.83872 7.37019 5.93441L5.17464 6.81261C5.32996 9.33847 7.35747 11.3659 9.88293 11.521L10.7612 9.32541C10.8566 9.08659 11.128 8.96981 11.3675 9.06554L16.3642 11.0642C16.5413 11.135 16.6575 11.3066 16.6575 11.4973C16.6575 13.9626 14.663 15.9612 12.1936 15.9612ZM4.88775 0.984452C3.10113 1.13905 1.66737 2.63725 1.66737 4.50193C1.66737 7.3136 2.76227 9.95698 4.75041 11.9451C6.73853 13.9332 9.38191 15.0282 12.1936 15.0282C14.0577 15.0282 15.5564 13.5952 15.7111 11.8078L11.4542 10.105L10.628 12.1702C10.5572 12.3473 10.3857 12.4635 10.1949 12.4635C6.90678 12.4635 4.23207 9.78876 4.23207 6.50111C4.23207 6.31038 4.3482 6.1383 4.52531 6.06749L6.59052 5.24139L4.88775 0.984452Z" fill="white"/>
</g>
<defs>
<clipPath id="clip0_1_5357">
<rect width="15.9231" height="15.9231" fill="white" transform="translate(0.734375 0.0380859)"/>
</clipPath>
</defs>
</svg>
