<svg width="17" height="16" viewBox="0 0 17 16" fill="none" xmlns="http://www.w3.org/2000/svg">
<g clip-path="url(#clip0_1_5348)">
<path d="M16.6712 0.174728C16.5498 0.0533767 16.3716 0.00846864 16.2073 0.0577618L1.93619 4.33911C1.30729 4.52776 0.884766 5.09564 0.884766 5.75244C0.884766 6.40012 1.3197 6.97674 1.9425 7.15469L7.96929 8.87663L9.69122 14.9034C9.86917 15.5262 10.4458 15.9612 11.0937 15.9612C11.7503 15.9612 12.3182 15.5386 12.5068 14.9097L16.7882 0.638612C16.8375 0.47425 16.7926 0.296079 16.6712 0.174728ZM1.81776 5.75222C1.81776 5.51085 1.97307 5.30211 2.20427 5.23276L14.7031 1.48309L8.21087 7.97536L2.19879 6.25762C1.97447 6.19349 1.81776 5.98578 1.81776 5.75222ZM11.6132 14.6417C11.5438 14.8728 11.3351 15.0282 11.0935 15.0282C10.8601 15.0282 10.6524 14.8715 10.5883 14.6471L8.87059 8.63504L15.3629 2.14278L11.6132 14.6417Z" fill="white"/>
</g>
<defs>
<clipPath id="clip0_1_5348">
<rect width="15.9231" height="15.9231" fill="white" transform="translate(0.884766 0.0380859)"/>
</clipPath>
</defs>
</svg>
