<svg width="20" height="20" viewBox="0 0 20 20" fill="none" xmlns="http://www.w3.org/2000/svg">
<path d="M14.6019 11.9207C14.4988 11.8573 14.3818 11.7854 14.2409 11.6929C14.1623 11.641 14.0634 11.5701 13.9586 11.4951C13.4208 11.1097 13.0134 10.8369 12.6665 10.8369C12.5852 10.8369 12.5084 10.8519 12.4383 10.8814C12.1344 11.0092 11.8849 11.3505 11.6435 11.6806C11.5551 11.8015 11.4285 11.9746 11.3517 12.052C11.047 11.9915 10.4043 11.5569 9.7108 10.7997C9.01647 10.0417 8.61826 9.33922 8.5636 9.00735C8.63438 8.92318 8.79419 8.78395 8.90563 8.68676C9.2068 8.42426 9.51823 8.15282 9.6359 7.82206C9.78602 7.39709 9.5109 6.88884 9.07395 6.16208C9.0052 6.04769 8.94023 5.93966 8.8931 5.85447C8.80799 5.70004 8.74221 5.57228 8.68416 5.45967C8.44592 4.99741 8.28852 4.69189 7.69705 4.69189C7.31317 4.69189 6.77043 5.08794 6.40279 5.48069C5.86851 6.0516 5.57422 6.71073 5.57422 7.33794C5.57524 9.04148 6.44606 10.994 7.96342 12.6967C7.96602 12.6995 7.96863 12.7003 7.97132 12.7031C9.53093 14.3598 11.3203 15.3073 12.8806 15.3073H12.8812C13.4549 15.3073 14.0588 14.9897 14.5817 14.4067C14.9417 14.0053 15.305 13.4171 15.305 12.9983C15.305 12.3526 15.0254 12.1808 14.6019 11.9207ZM12.8807 14.4272C11.5517 14.4261 9.9304 13.5467 8.54304 12.0748C7.19464 10.5599 6.38919 8.78973 6.38834 7.33883C6.38834 6.4612 7.4315 5.62676 7.7043 5.58104C7.76002 5.5813 7.78925 5.5849 7.80317 5.58748C7.83923 5.63281 7.91091 5.7719 7.97473 5.89575C8.03249 6.00783 8.10442 6.14737 8.196 6.31353C8.25136 6.41365 8.32039 6.52844 8.39346 6.64993C8.53173 6.87995 8.80969 7.3423 8.85654 7.53965C8.77819 7.66075 8.53507 7.87263 8.39781 7.99227C8.0465 8.2985 7.74309 8.56291 7.74309 8.9366C7.74394 9.83925 8.80888 11.072 9.13525 11.4283C9.46161 11.7846 10.5907 12.9473 11.4193 12.9482C11.7593 12.947 12.0005 12.6171 12.2798 12.2351C12.39 12.0845 12.5852 11.8175 12.6966 11.7324C12.8772 11.7832 13.3012 12.087 13.512 12.2382C13.6233 12.3179 13.7284 12.3932 13.8207 12.4541C13.9723 12.5537 14.1001 12.6322 14.2028 12.6953C14.3162 12.765 14.4437 12.8433 14.4852 12.8826C14.4875 12.8978 14.4908 12.9297 14.4911 12.9905C14.4489 13.288 13.6843 14.4261 12.8807 14.4272Z" fill="white"/>
<path d="M18.8439 9.9721C18.8133 7.64627 17.8682 5.44847 16.1828 3.78353C14.4663 2.0879 12.2006 1.15405 9.80283 1.15405C7.48827 1.15405 5.32302 2.03384 3.70585 3.6313C2.2708 5.0489 1.39038 6.93957 1.2266 8.95511C1.07128 10.8674 1.56408 12.8026 2.61638 14.4297L1.17942 18.2666C1.11912 18.4277 1.16147 18.6087 1.28725 18.7273C1.3699 18.8053 1.47817 18.8464 1.58813 18.8464C1.64547 18.8464 1.70333 18.83 1.75818 18.8069L5.50064 17.2337C6.92933 18.1121 8.56297 18.5648 10.2404 18.5648H10.2406C12.5548 18.5648 14.72 17.6956 16.3369 16.0983C17.9842 14.471 18.8745 12.3021 18.8439 9.9721ZM15.7207 15.5001C14.2682 16.9349 12.3219 17.725 10.2404 17.725C8.65568 17.725 7.11389 17.2668 5.78166 16.3999C5.70942 16.3529 5.62595 16.329 5.54199 16.329C5.48435 16.329 5.42649 16.3402 5.3719 16.3631L2.3467 17.6306L3.50997 14.5245C3.55863 14.3945 3.54095 14.2493 3.46248 14.1344C1.32433 11.0053 1.68581 6.84407 4.32199 4.23999C5.77456 2.80509 7.72101 2.01482 9.80283 2.01482C11.9678 2.01482 14.0147 2.8591 15.5666 4.39218C17.0905 5.89749 17.9449 7.88311 17.9726 9.98329C18.0001 12.0792 17.2004 14.0384 15.7207 15.5001Z" fill="white"/>
</svg>
