<svg width="30" height="30" viewBox="0 0 30 30" fill="none" xmlns="http://www.w3.org/2000/svg">
<g clip-path="url(#clip0_306_7172)">
<path d="M27.5112 23.8839H23.9361C23.3862 23.8852 22.8664 23.6321 22.5282 23.1985L19.0424 18.752C18.886 18.5522 18.6202 18.4732 18.38 18.5557C18.1399 18.6379 17.9782 18.8631 17.9774 19.1169V20.9045C17.9774 22.5507 16.3759 23.8839 14.4022 23.8839C13.6306 23.8909 12.8732 23.6764 12.2199 23.2657C7.21454 20.0628 3.81808 16.0185 0.868741 9.74713C0.608851 9.19374 0.649875 8.54588 0.97741 8.02959C1.30494 7.5133 1.8736 7.20039 2.48503 7.19973H6.0602C6.7755 7.19799 7.42293 7.62284 7.70617 8.27966L8.10833 9.21818C8.71605 10.628 9.53194 11.9388 10.5292 13.1063C10.5617 13.1412 10.6079 13.1604 10.6557 13.1584C10.6996 13.1626 10.7434 13.1479 10.776 13.1181C10.8087 13.0884 10.8272 13.046 10.827 13.002V10.6706C10.0092 10.3784 9.51994 9.5407 9.66679 8.68488C9.81365 7.82905 10.5545 7.20257 11.423 7.19973H16.1898C17.177 7.19973 17.9774 8.00013 17.9774 8.98732V13.1584C17.9778 13.4244 18.1546 13.6579 18.4105 13.7306C18.6665 13.8032 18.9395 13.6974 19.0798 13.4711L22.409 8.05621C22.7317 7.52181 23.3118 7.19646 23.9361 7.19973H27.5112C28.1717 7.19995 28.7782 7.56458 29.0885 8.14764C29.3987 8.7307 29.3621 9.43749 28.9933 9.98541L25.2394 15.1917C25.0878 15.4005 25.0878 15.6831 25.2394 15.892L28.9636 21.0535C29.3547 21.5982 29.4081 22.3159 29.102 22.9125C28.7958 23.509 28.1816 23.8839 27.5112 23.8839ZM18.5733 17.3293C19.1232 17.3282 19.6427 17.5811 19.981 18.0147L23.4667 22.4612C23.5793 22.6063 23.7523 22.6916 23.9361 22.6921H27.5112C27.7355 22.6929 27.9413 22.5675 28.0434 22.3678C28.1458 22.1679 28.127 21.9279 27.9952 21.7461L24.2712 16.5846C23.82 15.9598 23.82 15.1164 24.2712 14.4917L28.0177 9.30023C28.0766 9.2064 28.1076 9.09795 28.1069 8.98732C28.1069 8.65825 27.8403 8.39138 27.5112 8.39138H23.9361C23.7294 8.3916 23.5378 8.49874 23.4296 8.6744L20.1001 14.0893C19.6833 14.7741 18.8616 15.0977 18.0897 14.8808C17.3179 14.6641 16.7851 13.9599 16.7857 13.1584V8.98732C16.7857 8.65825 16.5188 8.39138 16.1898 8.39138H11.423C11.0937 8.39138 10.827 8.65825 10.827 8.98732C10.827 9.31638 11.0937 9.58325 11.423 9.58325H12.0187V13.002C12.0119 13.5673 11.6569 14.0699 11.126 14.2652C10.5953 14.4603 9.99913 14.3073 9.62773 13.8809C8.55435 12.6238 7.6754 11.2129 7.02098 9.69497L6.61118 8.75645C6.51801 8.53475 6.30067 8.39073 6.0602 8.39138H2.48503C2.28166 8.39247 2.0929 8.49721 1.98424 8.66916C1.87557 8.84111 1.86226 9.05649 1.94867 9.24066C4.83124 15.3704 7.9966 19.1468 12.8677 22.2676C13.3292 22.5502 13.861 22.6975 14.4022 22.6921C15.713 22.6921 16.7857 21.8877 16.7857 20.9045V19.1169C16.7857 18.1297 17.5859 17.3293 18.5733 17.3293Z" fill="black"/>
</g>
<defs>
<clipPath id="clip0_306_7172">
<rect width="28.6" height="28.6" fill="white" transform="translate(0.699219 0.699707)"/>
</clipPath>
</defs>
</svg>
