<svg width="28" height="28" viewBox="0 0 28 28" fill="none" xmlns="http://www.w3.org/2000/svg">
<g clip-path="url(#clip0_306_7165)">
<path d="M22.3478 3.62158H5.90536C2.91183 3.62158 0.476562 6.06465 0.476562 9.0671V18.2327C0.476562 21.2357 2.91183 23.6782 5.90536 23.6782H22.3478C25.3413 23.6782 27.7766 21.2351 27.7766 18.2327V9.0671C27.7766 6.06465 25.3413 3.62158 22.3478 3.62158ZM26.6623 18.2332C26.6623 20.6217 24.7268 22.5644 22.3478 22.5644H5.90536C3.52636 22.5644 1.59085 20.6211 1.59085 18.2332V9.0671C1.59085 6.67918 3.52636 4.73587 5.90536 4.73587H22.3478C24.7268 4.73587 26.6623 6.67918 26.6623 9.0671V18.2332Z" fill="black"/>
<path d="M19.0616 13.4485L11.3424 8.92727C11.1708 8.82699 10.9574 8.82532 10.7841 8.92449C10.6109 9.02366 10.5039 9.20807 10.5039 9.40809V18.45C10.5039 18.6494 10.6109 18.8344 10.7836 18.9336C10.8694 18.9826 10.9652 19.0071 11.061 19.0071C11.1585 19.0071 11.2555 18.9815 11.3424 18.9308L19.0616 14.4107C19.2321 14.3109 19.3374 14.1276 19.3374 13.9299C19.3374 13.7321 19.2327 13.5482 19.0616 13.4485ZM11.6182 17.4777V10.3797L17.6777 13.9293L11.6182 17.4777Z" fill="black"/>
</g>
<defs>
<clipPath id="clip0_306_7165">
<rect width="27.3" height="27.3" fill="white" transform="translate(0.476562)"/>
</clipPath>
</defs>
</svg>
